<?xml version="1.0" encoding="iso-8859-1"?>
<!-- Generator: Adobe Illustrator 19.0.0, SVG Export Plug-In . SVG Version: 6.00 Build 0)  -->
<svg version="1.1" id="Layer_1" xmlns="http://www.w3.org/2000/svg" xmlns:xlink="http://www.w3.org/1999/xlink" x="0px" y="0px"
	 viewBox="0 0 512 512" style="enable-background:new 0 0 512 512;" xml:space="preserve">
<path style="fill:#FFC61B;" d="M258.935,512C117.776,512,2.934,397.158,2.934,256.001S117.776,0,258.935,0
	c58.426,0,113.443,19.168,159.1,55.43c44.291,35.177,76.078,84.634,89.508,139.257c1.935,7.873-2.879,15.825-10.75,17.76
	c-7.876,1.932-15.825-2.879-17.762-10.752C454.085,100.227,363.578,29.361,258.935,29.361c-124.97,0-226.64,101.669-226.64,226.639
	s101.67,226.639,226.64,226.639c105.116,0,198.11-74.318,221.125-176.712c1.776-7.91,9.623-12.879,17.542-11.104
	c7.911,1.778,12.882,9.633,11.104,17.543c-12.541,55.802-44.063,106.466-88.755,142.667C374.596,491.767,317.413,512,258.935,512z"
	/>
<circle style="fill:#FEE187;" cx="114.89" cy="255.996" r="50.912"/>
<path style="fill:#FFC61B;" d="M114.89,321.591c-36.167,0-65.592-29.424-65.592-65.592s29.424-65.592,65.592-65.592
	s65.592,29.424,65.592,65.592S151.056,321.591,114.89,321.591z M114.89,219.77c-19.977,0-36.231,16.253-36.231,36.231
	s16.253,36.231,36.231,36.231s36.231-16.253,36.231-36.231S134.867,219.77,114.89,219.77z"/>
<circle style="fill:#FEE187;" cx="258.933" cy="255.996" r="50.912"/>
<path style="fill:#FFC61B;" d="M258.935,321.591c-36.168,0-65.592-29.424-65.592-65.592s29.424-65.592,65.592-65.592
	s65.592,29.424,65.592,65.592S295.103,321.591,258.935,321.591z M258.935,219.77c-19.979,0-36.231,16.253-36.231,36.231
	s16.253,36.231,36.231,36.231c19.977,0,36.231-16.253,36.231-36.231S278.913,219.77,258.935,219.77z"/>
<circle style="fill:#FEE187;" cx="402.977" cy="255.996" r="50.912"/>
<path style="fill:#FFC61B;" d="M402.98,321.591c-36.168,0-65.592-29.424-65.592-65.592s29.424-65.592,65.592-65.592
	s65.592,29.424,65.592,65.592S439.148,321.591,402.98,321.591z M402.98,219.77c-19.977,0-36.231,16.253-36.231,36.231
	s16.253,36.231,36.231,36.231s36.231-16.253,36.231-36.231S422.959,219.77,402.98,219.77z"/>
<g>
</g>
<g>
</g>
<g>
</g>
<g>
</g>
<g>
</g>
<g>
</g>
<g>
</g>
<g>
</g>
<g>
</g>
<g>
</g>
<g>
</g>
<g>
</g>
<g>
</g>
<g>
</g>
<g>
</g>
</svg>
