<svg width="5000" height="1000" viewBox="0 0 5000 1000" fill="none" xmlns="http://www.w3.org/2000/svg">
<g clip-path="url(#clip0)">
<rect width="5000" height="1000" fill="white"/>
<path d="M5000 -222H0V1303H5000V-222Z" fill="#2F0053"/>
<path d="M2496.24 730.291C2485.86 729.269 2476.84 728.077 2468.08 726.572C2460.66 725.299 2449.58 723.008 2445.41 721.888C2443.67 721.421 2444.29 720.904 2451.87 716.562C2453.91 715.398 2455.93 714.216 2456.38 713.937C2457.08 713.495 2457.64 712.841 2457.64 712.463C2457.64 712.015 2453.66 710.768 2418.71 700.26C2391.58 692.102 2381.91 689.149 2380.11 688.48C2379.49 688.246 2379.03 687.94 2379.03 687.755C2379.03 687.276 2379.96 687.02 2395.34 683.305C2415.8 678.358 2430.4 674.761 2431.65 674.357C2433.8 673.661 2433.69 673.249 2431.15 672.567C2430.23 672.319 2413.97 668.346 2395.02 663.74C2376.07 659.133 2359.78 655.14 2358.82 654.866C2356.88 654.315 2356.44 653.809 2357.54 653.388C2358.65 652.962 2365.6 651.08 2379.48 647.448C2400.06 642.061 2401.71 641.595 2401.9 641.091C2401.97 640.916 2401.98 640.727 2401.92 640.671C2401.62 640.371 2360.73 633.881 2347.93 632.101C2343.7 631.513 2343.65 631.5 2343.73 631.062C2343.78 630.82 2344.35 630.525 2345.43 630.186C2348.22 629.309 2357.08 626.801 2367.5 623.939C2384.99 619.137 2391.62 617.275 2392.04 617.049C2392.42 616.845 2392.42 616.803 2392.09 616.472C2391.77 616.152 2390.29 616.099 2377.66 615.961C2367.32 615.848 2233.91 615.392 2199.8 615.353L2196.5 615.346L2194.78 612.9C2193.84 611.554 2191.97 608.817 2190.64 606.816C2189.3 604.816 2187.99 603.037 2187.72 602.862C2187.34 602.618 2185.17 602.449 2178.21 602.121C2173.24 601.887 2169.11 601.764 2169.02 601.846C2168.93 601.929 2177.91 613 2188.98 626.448C2200.05 639.897 2209.2 651.066 2209.32 651.268C2209.79 652.125 2209 651.836 2207.91 650.752C2204.41 647.29 2161.24 601.83 2161.24 601.604C2160.67 600.68 2159.7 599.84 2159.45 599.006C2159.97 598.481 2177.76 598.199 2186.24 598.582L2190.04 598.754L2190.7 599.521C2191.06 599.943 2192.82 602.704 2194.59 605.657C2196.94 609.559 2197.98 611.096 2198.4 611.283C2199.14 611.615 2305 611.574 2350.65 611.224C2385.93 610.953 2397.54 610.727 2398.45 610.294C2399.31 609.881 2399.52 608.695 2399.7 603.061L2399.86 598.153L2401.4 596.816C2410.53 588.923 2420.09 585.006 2440.02 580.993C2477.11 573.525 2512.03 572.972 2549.84 579.253C2563.44 581.512 2576.48 584.422 2583.48 586.763C2590.59 589.137 2596.35 592.464 2600.1 596.357C2601.83 598.15 2601.85 598.241 2602.35 604.474C2602.76 609.502 2603 610.895 2603.51 611.133C2603.93 611.331 2670.54 611.584 2732.76 611.623L2775.1 611.649L2775.63 611.16C2776.05 610.763 2784.98 601.068 2789.04 596.586L2790.02 595.505L2795.68 595.307C2799.22 595.182 2808.31 595.195 2820.08 595.34C2832.62 595.519 2839.19 595.429 2846.82 595.684C2846.89 595.888 2771.61 667.581 2770.86 668.027C2770.71 668.119 2770.53 668.095 2770.45 667.974C2770.3 667.723 2768.27 669.867 2805.63 630.683C2821.36 614.181 2834.19 600.603 2834.13 600.51C2834.01 600.305 2796.89 600.32 2794.18 600.527L2792.25 600.674L2787.88 605.238C2785.47 607.748 2782.48 610.856 2781.22 612.144L2777.3 616.461C2718.96 616.947 2676.31 616.768 2630.73 617.621C2612.8 617.956 2606.83 618.125 2606 618.322C2605.34 618.477 2605.38 619.003 2606.05 619.261C2606.95 619.603 2621.46 624.103 2640.08 629.813C2649.71 632.766 2657.86 635.321 2658.19 635.49C2658.91 635.864 2658.94 636.114 2658.3 636.522C2657.67 636.921 2640.3 642.106 2613.44 649.914C2597.75 654.477 2597.28 654.641 2597.96 655.278C2598.53 655.815 2600.73 656.373 2621.38 661.23C2637.75 665.079 2644.71 666.777 2645.48 667.107C2646.26 667.439 2645.98 667.993 2644.87 668.326C2642.8 668.949 2633.98 671.356 2620.29 675.038C2588.25 683.656 2577.96 686.53 2577.48 686.991C2577.23 687.235 2577.28 687.343 2577.78 687.672C2578.11 687.887 2583.19 689.683 2589.06 691.662C2601.84 695.968 2601.53 695.751 2596.48 696.827C2594.69 697.209 2585.59 699 2576.26 700.805C2558.57 704.23 2555.57 704.854 2555.39 705.154C2555.15 705.536 2555.56 705.991 2556.43 706.318C2556.93 706.505 2561.21 708.089 2565.93 709.838C2575.4 713.346 2581.55 715.737 2581.97 716.078C2582.66 716.638 2582.13 716.93 2577.74 718.429C2566.5 722.273 2541.2 728.344 2530.27 729.823C2525.65 730.448 2522.17 730.614 2511.78 730.709C2502.13 730.796 2501.11 730.768 2496.24 730.288L2496.24 730.291ZM2508.74 656.769C2510 656.703 2511.32 656.611 2511.68 656.566C2512.03 656.522 2512.87 656.425 2513.52 656.351C2515.36 656.145 2516.64 655.96 2519.61 655.47C2521.21 655.206 2521.89 655.074 2524.15 654.587C2531.95 652.904 2536.07 651.367 2539.34 648.925C2541.07 647.632 2543.97 644.804 2543.97 644.409C2543.97 644.271 2544.15 644.043 2544.38 643.902C2544.95 643.546 2547.01 640.412 2547.01 639.904C2547.01 639.674 2547.1 639.487 2547.21 639.487C2547.63 639.487 2549.19 635.497 2550.28 631.658C2551.26 628.173 2552.08 623.985 2552.6 619.698C2552.81 617.994 2552.83 609.895 2552.63 608.825C2551.89 604.851 2550.76 602.163 2548.68 599.366C2547.92 598.348 2545.46 595.778 2545.25 595.778C2545.17 595.778 2544.81 595.509 2544.45 595.18C2543.56 594.35 2540.79 592.734 2540.27 592.734C2540.03 592.734 2539.84 592.65 2539.84 592.548C2539.84 592.359 2537.85 591.399 2535.7 590.546C2533.46 589.656 2527.69 587.774 2527.57 587.893C2527.5 587.958 2527.31 587.893 2527.13 587.747C2526.48 587.203 2517.24 584.913 2514.28 584.561C2513.81 584.504 2513.07 584.397 2512.65 584.323C2509.99 583.851 2507.37 583.719 2500.58 583.714C2494.23 583.707 2490.19 583.861 2488.95 584.149C2488.65 584.218 2487.77 584.371 2486.99 584.488C2480.69 585.434 2472.34 587.817 2466.37 590.372C2462.03 592.233 2459.14 594.069 2456.4 596.726C2455.41 597.688 2454.59 598.537 2454.59 598.613C2454.59 598.689 2454.23 599.142 2453.78 599.62C2452.61 600.862 2450.93 603.769 2450.22 605.775C2449.35 608.245 2449.08 610.695 2449.22 614.914C2449.29 616.888 2449.39 618.698 2449.45 618.937C2449.5 619.176 2449.61 619.861 2449.69 620.459C2450.23 624.51 2452.13 631.063 2453.87 634.92C2455.1 637.64 2456.37 639.949 2456.7 640.075C2456.86 640.136 2456.99 640.347 2456.99 640.543C2456.99 641.179 2459.17 643.884 2461.75 646.451C2464.1 648.786 2464.44 649.04 2466.77 650.189C2468.15 650.867 2470.14 651.723 2471.2 652.091C2473.89 653.02 2480.56 654.768 2483.19 655.228C2483.96 655.363 2485.13 655.578 2485.68 655.685C2486.15 655.776 2486.88 655.894 2488.41 656.123C2488.84 656.188 2490.13 656.364 2491.56 656.555C2491.98 656.61 2493.1 656.717 2494.06 656.791C2495.02 656.865 2495.84 656.961 2495.88 657.004C2495.99 657.106 2505.77 656.927 2508.74 656.769V656.769ZM2522.2 605.038C2522.1 604.933 2514.84 604.635 2505.8 604.365C2495.3 604.051 2494.34 603.87 2488.95 601.19C2486.86 600.149 2484.72 598.934 2484.21 598.489C2483.38 597.777 2483.28 597.588 2483.34 596.893C2483.4 596.147 2483.49 596.061 2485.04 595.296C2487.51 594.07 2494.11 592.366 2498.95 591.702C2501.42 591.364 2514.16 591.551 2516.26 591.956C2516.49 591.999 2517.31 592.099 2518.09 592.178C2519.33 592.303 2520.3 592.457 2522.44 592.864C2529.14 594.14 2538.38 597.653 2539.95 599.522C2540.54 600.222 2540.64 601.102 2540.24 602.191C2540.05 602.731 2539.7 603.014 2538.56 603.549C2537.77 603.921 2536.82 604.284 2536.47 604.356C2535.14 604.62 2534.49 604.733 2533.75 604.824C2532.69 604.953 2522.31 605.146 2522.2 605.038V605.038ZM2400.3 557.995C2400.67 547.557 2401.85 541.304 2405.71 529.454C2410.88 513.565 2416.88 501.295 2433.18 473.241C2437.53 465.747 2442.83 456.781 2455.42 435.621C2467.3 415.639 2468.18 414.042 2467.79 413.026C2467.61 412.56 2465.01 410.403 2458 404.897C2444.06 393.95 2432.76 385.323 2429.45 383.087C2427.31 381.645 2426.76 381.458 2425.93 381.888C2424.62 382.565 2424.65 384.074 2426.01 386.13L2426.6 387.022L2426.23 388.903C2425.8 391.042 2425.89 391.924 2426.68 393.276C2427.84 395.271 2429.65 395.839 2432.32 395.046L2434.02 394.543L2439.51 400.152C2442.54 403.238 2445.07 405.961 2445.15 406.204C2445.32 406.749 2444.97 406.993 2444.2 406.859C2440.49 406.22 2415.91 401.091 2403.75 398.424C2396.65 396.866 2393.3 396.045 2392.31 395.626C2391.35 395.224 2389.12 393.369 2380.9 386.159C2359.7 367.56 2344.41 355.026 2341.65 353.975C2340.85 353.672 2339.63 354.184 2339.34 354.945C2339.06 355.696 2339.44 356.582 2340.85 358.445C2341.45 359.247 2341.95 360.074 2341.95 360.283C2341.95 360.493 2341.71 361.187 2341.41 361.826C2340.66 363.445 2340.53 364.564 2340.94 365.963C2341.68 368.493 2344.08 369.695 2347.14 369.056C2349.19 368.627 2349.25 368.641 2350.39 369.786C2351.73 371.124 2358.75 379.156 2360.92 381.835C2362.81 384.155 2363.03 384.766 2361.9 384.541C2357.11 383.582 2356.01 383.593 2355.51 384.602C2355.08 385.48 2355.66 386.914 2359.68 394.892C2361.77 399.042 2363.48 402.696 2363.48 403.013C2363.48 404.129 2368.34 397.784 2284.17 506.461C2263.51 533.136 2258.14 540.202 2257.77 541.154C2257.64 541.495 2257.68 541.846 2257.89 542.249C2258.05 542.575 2259.96 544.483 2262.12 546.489C2264.29 548.495 2266.06 550.216 2266.06 550.315C2266.06 551.102 2266.82 551.088 2220.09 551.16C2195.2 551.198 2167.94 551.129 2159.5 551.006L2144.17 550.784C2139.33 550.791 2123.75 550.784 2123.75 550.784C2140.99 531.333 2154.55 512.896 2172.48 493.041C2164.58 495.076 2160.96 496.614 2153.37 498.795C2153.11 498.795 2152.98 498.671 2153.02 498.472C2169.25 477.365 2184.08 457.481 2203.85 432.966C2203.85 432.966 2180.03 473.574 2171.9 485.19L2191.03 481.541C2191.03 481.541 2158.84 522.307 2145.85 541.943C2145.79 542.183 2152.27 542.26 2183.69 542.391C2204.53 542.478 2223.32 542.515 2225.44 542.473C2231.36 542.354 2231.29 542.164 2224.22 538.752C2214.77 534.199 2211.81 532.636 2211.74 532.172C2211.64 531.456 2215.38 527.49 2241.48 500.64C2267.38 473.99 2269.32 471.945 2269.32 471.253C2269.32 470.533 2268.29 469.919 2259.73 465.51C2243.69 457.254 2240.71 455.686 2240.32 455.307C2239.95 454.956 2239.94 454.861 2240.22 454.467C2240.66 453.845 2248.44 445.65 2268.13 425.081C2297.89 394.001 2300.42 391.355 2305.88 385.601C2308.82 382.496 2311.53 379.611 2311.89 379.189C2312.77 378.167 2312.85 377.651 2312.15 377.311C2311.38 376.933 2306.9 375.966 2298.79 374.426C2290.25 372.807 2288.78 372.453 2288.78 372.018C2288.78 371.602 2292.82 368.912 2301.73 363.395C2315.04 355.149 2333.97 343.636 2335.54 342.825C2336.21 342.476 2343.66 342.312 2392.18 341.574C2427.47 341.038 2449.68 340.591 2452.74 340.355C2454.76 340.2 2455.13 340.009 2454.78 339.322C2454.47 338.744 2451.91 335.773 2446.11 329.288C2440.29 322.788 2439.37 321.658 2439.37 321.032C2439.37 320.59 2439.62 320.424 2441.16 319.833C2445.77 318.072 2457.98 314.027 2470.03 310.268C2482.7 306.317 2485.69 305.276 2485.69 304.814C2485.69 304.525 2485.45 304.343 2484.87 304.192C2482.52 303.576 2466.39 300.538 2450.79 297.772C2438.81 295.648 2436.1 295.114 2435.8 294.814C2435.15 294.171 2434.61 294.43 2491.86 268.071L2503.8 262.575L2512.09 262.719C2521.22 262.878 2522.5 262.981 2522.61 263.555C2522.71 264.041 2521.62 264.726 2515.48 268.063C2508.77 271.711 2506.39 273.097 2506.25 273.438C2506.19 273.597 2506.2 273.881 2506.27 274.068C2506.41 274.416 2513.23 277.826 2530.05 285.957C2535.25 288.471 2544.11 292.752 2549.73 295.469C2561.82 301.313 2576.55 308.656 2577.26 309.189C2577.68 309.504 2577.71 309.623 2577.49 309.899C2577.33 310.082 2567.9 313.322 2556.51 317.1C2532.16 325.182 2523.33 328.333 2519.34 330.372C2517.24 331.438 2516.97 332.615 2518.7 333.082C2525.1 334.806 2567.27 339.162 2623.01 343.858C2629.47 344.402 2638.23 345.14 2642.48 345.497C2646.72 345.855 2652.49 346.343 2655.31 346.582C2670.16 347.846 2669.07 347.712 2668.96 348.261C2668.87 348.754 2666.82 349.943 2650.63 358.924C2635.15 367.506 2630.89 369.939 2630.51 370.397C2630.37 370.568 2630.3 370.842 2630.36 371.005C2630.59 371.598 2635.96 373.086 2678.79 384.41C2714.96 393.973 2717.93 394.814 2717.93 395.473C2717.93 395.916 2714.49 397.958 2701.73 405.086C2690.18 411.539 2690.27 411.476 2691.24 412.545C2691.51 412.842 2694.18 414.544 2697.17 416.327C2715.54 427.282 2750.36 449.046 2759.79 455.473C2764.78 458.869 2765.37 459.489 2764.15 460.044C2763.57 460.311 2754.48 462.864 2736.2 467.898C2722.26 471.737 2721.98 471.826 2721.89 472.419C2721.82 472.897 2724.91 475.402 2752.94 497.6C2772.52 513.104 2786.32 524.125 2787.45 525.163C2787.96 525.642 2788.39 526.215 2788.39 526.438C2788.39 526.941 2787.88 527.316 2775.02 536.343C2757.49 548.64 2755.12 550.385 2755.12 550.992C2755.12 551.199 2755.34 551.433 2755.61 551.512C2756.3 551.714 2775.7 552.012 2805.68 552.281C2819.79 552.408 2839.25 552.615 2848.92 552.742C2858.6 552.868 2866.59 552.892 2866.68 552.794C2866.78 552.696 2856.43 538.834 2843.69 521.988C2827.38 500.418 2820.6 491.292 2820.76 491.13C2820.92 490.968 2823.42 491.289 2829.21 492.216C2833.73 492.94 2837.5 493.461 2837.6 493.373C2837.69 493.285 2825.81 475.754 2811.2 454.416C2781.03 410.36 2782.08 411.906 2782.08 411.604C2782.08 411.068 2782.7 411.501 2783.73 412.752C2805.79 439.708 2862.53 509.737 2862.43 509.89C2862.36 510.008 2862.12 510.103 2861.91 510.103C2861.69 510.103 2856.25 508.831 2849.82 507.276C2843.39 505.722 2838.02 504.45 2837.88 504.45C2837.75 504.45 2838.46 505.306 2839.45 506.352C2842.63 509.693 2850.02 518.032 2856.56 525.652C2864.8 535.247 2880.85 558.759 2881 559.127C2865.59 559.106 2850.23 559.346 2834.82 559.285C2800.74 559.554 2726.31 559.428 2726.31 559.103C2726.31 558.962 2727.82 557.176 2729.66 555.133C2733.42 550.973 2733.8 550.465 2733.81 549.656C2733.81 548.707 2733.14 547.754 2693.9 492.707C2651.75 433.567 2640.54 417.685 2639.3 415.349L2638.67 414.168L2639.87 413.082C2642.96 410.271 2649.72 405.072 2650.27 405.072C2650.41 405.072 2650.96 405.509 2651.5 406.043C2652.77 407.289 2653.87 407.648 2655.27 407.274C2657.66 406.638 2658.56 404.52 2657.47 402.071C2657.24 401.538 2657.05 400.931 2657.05 400.721C2657.05 400.49 2657.61 399.974 2658.46 399.418C2661 397.762 2661.9 396.201 2660.59 395.704C2659.44 395.269 2657.2 396.318 2645.09 402.952C2632.6 409.791 2627.03 412.798 2625.02 413.794L2623.16 414.716L2616.35 413.57C2608.37 412.227 2577.8 406.965 2570.71 405.712C2561.67 404.114 2556.47 403.065 2556.17 402.776C2555.74 402.377 2555.86 402.223 2560.3 397.267C2564.7 392.362 2565.29 391.604 2565.35 390.783C2565.41 389.823 2564.64 389.909 2561.11 391.253C2559.37 391.917 2557.79 392.459 2557.59 392.459C2556.77 392.459 2557.4 391.691 2560.44 388.942C2567.4 382.652 2571.84 378.977 2572.46 378.977C2572.69 378.977 2573.32 379.311 2573.86 379.718C2576.42 381.674 2579.69 380.872 2580.63 378.059C2581.05 376.77 2580.94 376.006 2580.04 374.21C2579.67 373.475 2579.42 372.738 2579.49 372.572C2579.55 372.407 2580.39 371.616 2581.36 370.816C2583.36 369.162 2583.63 368.776 2583.43 367.861C2583.18 366.732 2582.42 366.644 2580.62 367.535C2578.53 368.567 2571.84 372.756 2558.65 381.297C2533.57 397.522 2530.69 399.486 2530.42 400.513C2530.25 401.157 2531 402.509 2536.46 411.378C2542.45 421.116 2551.71 436.404 2559.45 449.324C2579.93 483.551 2585.64 493.997 2590.41 505.988C2592.28 510.695 2594.42 517.063 2594.96 519.522C2595.5 521.976 2595.33 525.014 2594.57 526.632C2594.06 527.692 2593.98 528.234 2593.81 531.361C2593.66 534.032 2593.53 534.986 2593.28 535.274C2593.09 535.483 2592.39 536.755 2591.72 538.101C2590.48 540.591 2590.05 540.989 2589.43 540.243C2589.01 539.731 2588.71 536.112 2588.68 531.088C2588.65 526.326 2588.66 526.297 2589.26 524.814C2589.92 523.197 2589.89 522.729 2589.09 521.846C2588.25 520.921 2588.11 520.419 2588.11 518.392C2588.11 514.727 2588.1 514.718 2584.52 511.536C2582.8 510.005 2580.91 508.24 2580.31 507.615C2579.1 506.333 2579.14 506.516 2578.86 500.427C2578.79 498.872 2578.63 497.21 2578.51 496.733C2578.35 496.109 2578.36 495.433 2578.55 494.315C2578.89 492.327 2578.69 491.729 2577.11 489.88C2576.45 489.103 2575.64 488.026 2575.33 487.488C2574.45 485.978 2574.02 485.89 2573.52 487.123C2573.37 487.503 2572.39 488.662 2571.34 489.699C2570.22 490.802 2569.36 491.839 2569.27 492.199C2569.16 492.631 2569.3 493.322 2569.72 494.507C2570.28 496.087 2570.3 496.297 2570.08 497.661C2569.95 498.464 2569.74 500.824 2569.62 502.905C2569.49 504.985 2569.29 506.869 2569.18 507.092C2569.06 507.314 2567.4 508.669 2565.5 510.103C2563.59 511.537 2561.71 513.036 2561.31 513.434C2560.34 514.404 2560.06 515.476 2560.06 518.209V520.502L2559.23 521.555C2558.78 522.134 2558.34 522.775 2558.26 522.981C2558.18 523.186 2558.36 524.14 2558.64 525.101C2559.35 527.457 2559.56 529.177 2559.87 534.912C2560.12 539.61 2560.03 542.724 2559.62 543.385C2559.26 543.957 2545.9 543.699 2530.16 542.816C2522.38 542.379 2522.44 542.392 2522.44 541.144C2522.44 540.336 2522.56 540.138 2523.64 539.143C2524.29 538.536 2524.83 537.86 2524.83 537.641C2524.83 537.422 2524.34 536.799 2523.73 536.256C2521.94 534.642 2521.47 533.292 2522.04 531.391C2522.25 530.672 2522.22 530.385 2521.81 529.311C2521.13 527.538 2520.95 525 2520.8 515.282L2520.66 506.733L2522 505.211C2524.22 502.673 2524.35 502.142 2522.98 501.215C2521.91 500.486 2521.35 499.485 2521.35 498.295C2521.35 497.749 2521.44 497.067 2521.55 496.78C2521.7 496.398 2521.64 496.008 2521.33 495.331C2520.64 493.779 2520.49 492.038 2520.34 484.006L2520.2 476.283L2520.94 475.673C2521.35 475.337 2522.02 474.848 2522.44 474.585C2522.86 474.323 2523.39 473.725 2523.62 473.257C2523.99 472.504 2524.01 472.266 2523.78 471.204C2523.5 469.868 2523.26 469.535 2522.4 469.324C2521.79 469.176 2521.15 469.644 2520.56 470.648C2520.33 471.057 2520.31 471.058 2519.88 470.672C2519.3 470.154 2518.72 468.661 2517.77 465.255C2515.88 458.476 2514.8 456.554 2511.34 453.785L2509.58 452.375L2509.66 445.631L2509.73 438.886L2510.3 437.725C2510.93 436.448 2510.93 436.408 2509.95 434.073C2509.4 432.754 2508.89 430.919 2507.78 426.274C2507.42 424.777 2506.83 423.114 2506.2 421.829L2505.2 419.777L2505.48 414.941C2505.63 412.282 2505.7 409.242 2505.63 408.187C2505.55 407.132 2505.4 404.996 2505.28 403.441C2504.84 397.791 2500.91 312.083 2500.91 308.179C2500.91 306.74 2501.02 306.166 2501.44 305.244C2501.95 304.142 2501.96 304.067 2501.62 303.319C2501.42 302.891 2501.23 301.977 2501.18 301.288C2501.09 300.091 2501.14 299.96 2502.19 298.32C2503.55 296.194 2504.51 293.552 2504.08 293.115C2503.84 292.869 2503.62 292.895 2502.76 293.278C2501.09 294.014 2501.13 294.058 2501.13 291.205V288.677L2501.92 287.8C2502.67 286.973 2502.69 286.907 2502.31 286.632C2502.1 286.472 2501.74 286.341 2501.53 286.341C2501.29 286.341 2501.08 286.125 2501 285.806C2500.67 284.461 2499.88 284.764 2499.67 286.32C2499.59 286.911 2499.35 287.368 2498.91 287.756C2498.18 288.41 2498.21 288.725 2499.02 289.125L2499.61 289.409V292.232C2499.61 294.627 2499.54 295.186 2499.17 295.909C2498.63 296.974 2498.63 297.358 2499.17 298.788C2499.75 300.31 2499.72 301.263 2499.05 302.736L2498.48 303.962L2498.97 304.963C2499.45 305.958 2499.45 306.016 2499.33 313.712C2499.26 317.973 2498.65 334.915 2497.99 351.36C2496.17 396.477 2495.77 404.541 2495.24 407.176C2495.07 408.053 2495.09 408.664 2495.35 409.94C2496.05 413.285 2495.7 419.656 2494.72 421.587C2493.73 423.538 2492.9 426.4 2492.66 428.666C2492.38 431.388 2492.17 432.156 2491.11 434.291C2490.64 435.231 2490.26 436.211 2490.26 436.467C2490.26 436.723 2490.5 437.392 2490.8 437.954L2491.34 438.975V445.998V453.021L2489.49 454.395C2487.39 455.959 2486.1 457.53 2485.51 459.243C2485.28 459.892 2484.49 462.526 2483.74 465.095C2481.88 471.5 2481.82 471.586 2480.48 470.209C2479.79 469.488 2478.61 468.787 2478.11 468.787C2477.51 468.787 2477 469.667 2477 470.689C2477.01 472.15 2477.64 473.393 2478.77 474.172C2480.63 475.454 2480.5 474.56 2480.23 484.348C2480.09 489.125 2479.92 494.664 2479.85 496.657L2479.72 500.28L2478.36 501.187C2477.42 501.812 2477 502.233 2477 502.544C2477 502.791 2477.48 503.507 2478.07 504.133C2479.39 505.525 2479.55 506.082 2479.1 507.706C2478.82 508.692 2478.8 509.233 2478.96 510.239C2479.31 512.403 2479.19 514.427 2478.52 517.776C2477.55 522.539 2477.09 523.754 2475.97 524.559C2475.46 524.921 2474.63 525.513 2474.12 525.875C2472.9 526.745 2472.51 527.845 2472.22 531.228C2471.95 534.326 2471.54 535.397 2470.24 536.429C2469.77 536.801 2469.39 537.195 2469.39 537.306C2469.39 537.416 2469.92 538.086 2470.57 538.794C2471.33 539.617 2471.8 540.341 2471.88 540.803C2472.09 542.041 2472.87 548.366 2472.87 548.889C2472.87 549.284 2472.5 549.59 2471.07 550.392C2468.8 551.667 2468.21 552.3 2465.49 556.367C2464.26 558.191 2463.13 559.684 2462.96 559.684C2462.58 559.684 2461.95 558.702 2460.16 555.285C2458.27 551.684 2457.54 549.781 2457.03 547.071C2456.79 545.815 2456.49 544.514 2456.36 544.179C2456.08 543.456 2455.09 542.993 2453.2 542.696C2451.2 542.381 2451.16 542.357 2449.12 540.397C2447.01 538.365 2445.33 537.45 2441.19 536.063C2438.38 535.122 2438 535.214 2437.64 536.93C2437.51 537.586 2437.26 538.233 2437.1 538.368C2436.94 538.503 2436.03 538.8 2435.08 539.027C2432.82 539.564 2431.27 540.268 2429.85 541.4C2427.16 543.538 2426.8 543.638 2423.51 543.163C2421.6 542.886 2421.06 543.163 2417.23 546.385C2412.61 550.27 2409.05 552.473 2406.66 552.919C2406.05 553.034 2405.42 553.324 2405.12 553.626C2404.85 553.908 2403.93 555.655 2403.07 557.509C2401.26 561.423 2401 561.858 2400.52 561.858C2400.2 561.858 2400.18 561.481 2400.3 557.998L2400.3 557.995ZM2718.64 552.559C2717.68 551.273 2715.19 547.775 2713.11 544.784C2704.95 533.098 2703.15 530.334 2703.15 529.495C2703.15 529.193 2703.55 528.42 2704.04 527.763C2705.38 525.992 2708.21 523.148 2708.63 523.148C2709.07 523.148 2710.36 524.736 2714.28 530.116C2721.01 539.339 2726.63 547.61 2726.63 548.29C2726.63 548.916 2726 549.811 2723.94 552.104C2722.03 554.228 2721.25 554.896 2720.68 554.896C2720.51 554.896 2719.59 553.844 2718.64 552.559V552.559ZM2268.57 545.6C2266.65 543.867 2264.32 541.292 2264.32 540.896C2264.32 540.548 2265.26 539.198 2268.68 534.65C2275.75 525.252 2282.61 516.841 2283.22 516.841C2283.46 516.841 2284.63 517.889 2286.04 519.368C2287.88 521.288 2288.46 522.034 2288.46 522.473C2288.46 523.406 2285.46 527.765 2275.68 541.074C2272 546.089 2271.17 547.068 2270.59 547.068C2270.38 547.068 2269.47 546.407 2268.57 545.6ZM2698.43 523.311C2696.7 521.471 2684.61 503.729 2682.31 499.636C2681.93 498.963 2681.62 498.272 2681.62 498.1C2681.62 497.226 2686.41 492.486 2687.3 492.486C2687.49 492.486 2688.24 493.245 2688.95 494.171C2690.78 496.554 2698.36 507.193 2702.05 512.562C2704.75 516.494 2705.13 517.151 2704.94 517.563C2704.33 518.897 2699.9 524.017 2699.36 524.017C2699.22 524.017 2698.8 523.699 2698.43 523.311V523.311ZM2288.87 515.357C2287.44 513.924 2286.28 512.639 2286.28 512.501C2286.28 512.011 2288.88 508.399 2294.42 501.184C2301.21 492.334 2304.34 488.572 2304.9 488.572C2305.34 488.572 2309.76 492.931 2309.9 493.5C2310.08 494.207 2309.66 494.859 2304.14 502.41C2294.77 515.227 2292.76 517.813 2292.07 517.891C2291.53 517.953 2291.12 517.63 2288.87 515.357ZM2613.88 503.132C2612.35 502.761 2607.86 500.377 2605.83 498.865C2604.76 498.06 2602.26 495.78 2600.29 493.799C2594.93 488.421 2592.22 484.884 2589.85 480.2C2588.21 476.965 2587.65 475.187 2587.52 472.797C2587.42 471.053 2587.46 470.721 2587.9 469.861C2588.17 469.328 2588.99 468.305 2589.72 467.587C2591.04 466.293 2594.54 463.573 2595.88 462.796C2596.47 463.582 2592.58 466.688 2592.59 469.05C2592.6 470.723 2592.74 471.726 2593.1 472.917C2595.19 479.789 2603.96 490.153 2611.33 494.462C2616.93 497.734 2620.91 497.006 2628.48 491.326C2636.29 485.465 2641.75 477.495 2643.7 469.11C2644.26 466.698 2644.27 461.152 2643.72 459.448C2643.26 458.003 2643.26 457.911 2643.69 457.911C2644.09 457.911 2645.38 460.578 2645.75 462.174C2645.89 462.759 2646 464.755 2645.99 466.609C2645.99 469.646 2645.92 470.226 2645.33 472.48C2642.17 484.565 2632.68 495.938 2620.81 501.863C2618.38 503.08 2618.05 503.185 2616.46 503.261C2615.52 503.306 2614.36 503.248 2613.88 503.132H2613.88ZM2385.12 501.98C2382.7 501.171 2378.58 498.679 2374.79 495.733C2372.28 493.784 2367.8 489.463 2366.09 487.345C2362.36 482.714 2359.13 476.444 2357.78 471.213C2356.94 467.965 2356.71 463.138 2357.26 460.52C2358.37 455.207 2362.46 451.174 2367.46 450.454C2370.13 450.069 2370.54 450.566 2368.43 451.631C2365.75 452.983 2363.6 455.826 2362.7 459.215C2361.38 464.212 2363.42 472.852 2367.45 479.33C2370.58 484.355 2375.63 489.452 2380.98 492.98C2383.42 494.588 2384.55 495.161 2386.61 495.854C2388.6 496.521 2390 496.544 2392.17 495.947C2399.65 493.886 2409.91 485.241 2414.74 476.938C2415.81 475.106 2416.42 473.43 2416.93 470.96C2417.21 469.599 2417.4 469.096 2417.67 469.044C2418.67 468.851 2419.24 472.214 2418.62 474.658C2417.91 477.473 2415.41 481.892 2412.46 485.528C2410.48 487.978 2404.74 493.519 2402.4 495.246C2398.39 498.21 2393.93 500.693 2390.99 501.606C2389.07 502.201 2386.3 502.378 2385.12 501.98V501.98ZM2677.53 492.758C2674.68 488.987 2665.41 475.732 2662.22 470.865C2661.07 469.109 2660.52 468.064 2660.52 467.63C2660.52 467.103 2660.97 466.541 2662.99 464.496C2664.98 462.493 2665.56 462.018 2665.98 462.077C2666.62 462.167 2668.37 464.476 2674.81 473.676C2679.8 480.809 2683.52 486.326 2684.09 487.43C2684.43 488.091 2684.43 488.183 2684.09 488.844C2683.16 490.644 2679.85 494.443 2679.2 494.443C2678.97 494.443 2678.3 493.77 2677.53 492.758H2677.53ZM2311.59 489.085C2310.24 488.077 2307.37 485.287 2307.37 484.975C2307.37 484.378 2312.8 477.097 2319.45 468.781C2323.29 463.978 2324.48 462.695 2325.1 462.695C2325.44 462.695 2326.1 463.231 2327.2 464.395C2329.05 466.373 2329.68 467.402 2329.48 468.153C2329.33 468.716 2326.41 472.842 2321.35 479.632C2316.65 485.95 2313.46 489.877 2313.03 489.877C2312.82 489.877 2312.18 489.52 2311.59 489.085V489.085ZM2401.6 469.449C2397.86 468.101 2395.23 465.594 2395.23 463.371C2395.23 461.838 2396.8 461.057 2399.58 461.217C2403.43 461.441 2408.27 464.927 2408.27 467.481C2408.27 468.291 2407.66 469.086 2406.6 469.627C2405.84 470.017 2402.89 469.912 2401.6 469.449ZM2621.27 466.731C2620.22 466.343 2618.99 465.067 2618.99 464.371C2618.99 463.508 2620.21 461.876 2621.43 461.09C2623.26 459.919 2624.34 459.65 2627.16 459.65C2629.99 459.65 2630.7 459.88 2631.39 461.02C2632.42 462.705 2631.44 464.226 2628.31 465.822C2626.33 466.83 2626.12 466.888 2624.18 466.968C2622.74 467.028 2621.89 466.959 2621.27 466.731V466.731ZM2657.45 463.401C2655.71 461.496 2645.17 446.251 2642.48 441.752L2641.34 439.837L2641.83 439.311C2642.75 438.333 2646.8 436.165 2647.7 436.165C2647.91 436.165 2648.47 436.63 2648.94 437.198C2651.59 440.413 2662.88 456.762 2663.24 457.911C2663.34 458.226 2663.21 458.64 2662.84 459.204C2662.1 460.318 2658.58 463.999 2658.26 463.999C2658.11 463.999 2657.75 463.73 2657.45 463.401V463.401ZM2331.52 462.978C2330.13 461.784 2327.82 458.994 2327.82 458.504C2327.82 457.867 2334.45 448.955 2341.21 440.514C2345.43 435.247 2345.05 435.642 2345.72 435.809C2346.57 436.024 2350.65 440.008 2350.65 440.63C2350.65 441.399 2345.07 448.966 2337.91 457.918C2334.48 462.209 2333.09 463.782 2332.73 463.782C2332.58 463.782 2332.04 463.42 2331.52 462.978ZM2350.83 434.916C2349.63 433.751 2348.56 432.627 2348.45 432.418C2348.13 431.831 2348.78 430.777 2352.44 425.903C2359.19 416.918 2365.55 408.954 2366.37 408.457C2366.69 408.26 2366.89 408.376 2367.56 409.177C2369.1 410.992 2370.87 413.601 2370.87 414.042C2370.87 414.603 2368.56 417.89 2362.64 425.727C2356.01 434.522 2353.96 437.035 2353.45 437.035C2353.2 437.035 2352.1 436.147 2350.83 434.916V434.916ZM2637.25 434.371C2635.52 432.052 2630.56 424.676 2629.66 423.075C2628.82 421.584 2628.86 421.47 2630.78 419.807C2634.04 416.99 2634.36 416.912 2635.8 418.605C2638.59 421.901 2645.31 431.639 2645.3 432.372C2645.29 432.904 2643.99 433.886 2641.61 435.166C2639 436.564 2638.87 436.541 2637.25 434.371ZM2248.66 364.893C2244.83 360.615 2242.96 357.021 2239.95 348.155C2233.57 329.328 2225.82 298.988 2222.57 280.109C2221.63 274.696 2220.9 268.675 2220.59 263.939C2220.3 259.446 2220.45 245.824 2220.83 241.976C2222.33 226.883 2226.8 210.495 2231.84 201.621C2233.38 198.915 2234.86 197.363 2236.83 196.388C2238.33 195.645 2238.59 195.586 2240.35 195.593C2241.4 195.597 2242.85 195.762 2243.61 195.964C2246.33 196.683 2251.37 199.183 2255.14 201.683C2258.67 204.017 2267.8 213.447 2285.1 232.626C2297.34 246.193 2302.23 251.849 2302.1 252.272C2302.05 252.41 2301.8 252.554 2301.54 252.593C2301.28 252.631 2297.14 251.619 2292.35 250.343C2287.56 249.068 2283.18 248.009 2282.62 247.99C2281.75 247.961 2281.6 248.02 2281.54 248.4C2281.43 249.158 2283.83 251.393 2306.83 272.021C2316.59 280.771 2317.82 281.961 2317.81 282.663C2317.81 283.071 2316.65 284.68 2313.64 288.425C2304.5 299.804 2295.58 310.55 2294.36 311.642C2294.05 311.922 2293.74 312.006 2293.36 311.911C2292.64 311.731 2283.75 305.775 2279.92 302.907C2277.55 301.131 2276.93 300.564 2276.93 300.154C2276.93 299.762 2278.04 298.598 2281.5 295.351C2284.01 292.994 2286.06 290.953 2286.06 290.814C2286.06 290.25 2282.78 287.394 2265.4 272.821C2252.12 261.685 2253.06 262.515 2253.38 262.183C2253.59 261.968 2255.18 262.214 2261.16 263.381C2267.34 264.588 2268.74 264.8 2269.02 264.574C2269.45 264.217 2269.29 263.6 2268.3 261.656C2265.48 256.175 2239.11 210.176 2237.09 207.223C2236.36 206.168 2235.89 205.888 2235.58 206.336C2235.45 206.521 2235.4 209.7 2235.44 214.464C2235.52 223.501 2235.69 222.904 2233.25 221.787C2231.27 220.879 2230.65 220.747 2230.48 221.191C2230.3 221.668 2230.57 222.692 2234.32 235.85C2236.11 242.108 2237.57 247.548 2237.57 247.94V248.651L2235.25 248.793C2233.98 248.871 2231.51 248.936 2229.76 248.938C2226.09 248.941 2225.46 249.122 2225.57 250.143C2225.66 251.07 2226.43 253.535 2231.49 269.05C2236.83 285.435 2237.28 286.93 2236.94 287.271C2236.66 287.555 2236.48 287.493 2231.47 285.382C2229.61 284.598 2227.85 283.929 2227.56 283.896C2226.73 283.803 2226.78 284.726 2227.79 288.186C2230.96 298.982 2232.7 305.357 2236.27 319.173C2239.78 332.803 2240.94 336.676 2243.17 342.332C2245.25 347.635 2247.07 351.025 2251.08 357.132C2252.68 359.562 2253.66 361.27 2253.66 361.614C2253.66 362.575 2250.92 366.144 2250.18 366.144C2249.96 366.144 2249.28 365.581 2248.66 364.893V364.893ZM2745.35 359.251C2744 357.681 2744 357.474 2745.32 354.953C2750.92 344.225 2753.08 339.569 2755.64 332.61C2759.94 320.956 2763.42 307.913 2766.08 293.513C2768.56 280.11 2770.29 264.851 2769.44 263.994C2769.1 263.656 2768.29 264.008 2765.38 265.762C2762.28 267.626 2761.48 267.997 2761.19 267.704C2760.91 267.427 2761.24 266.735 2764.07 261.712C2767.16 256.225 2770.43 249.523 2771.42 246.657C2772.88 242.417 2773.05 241.064 2773.05 233.713C2773.06 226.676 2773.02 226.338 2771.17 218.71C2769.89 213.425 2769.46 212.463 2768.52 212.745C2768.27 212.821 2766.61 214.311 2764.85 216.054C2762.39 218.484 2761.58 219.165 2761.38 218.969C2761.2 218.787 2761.08 216.352 2760.97 210.61C2760.89 206.154 2760.75 202.337 2760.67 202.127C2760.46 201.642 2760.06 201.642 2759.64 202.127C2758.87 202.997 2751.8 215.239 2744.9 227.624C2740.37 235.763 2739.21 238.027 2739.29 238.561C2739.33 238.858 2739.58 239.071 2740 239.178C2740.36 239.268 2743.86 239.427 2747.78 239.532C2752.56 239.659 2754.99 239.803 2755.15 239.968C2755.34 240.151 2755.31 240.347 2755.06 240.735C2754.87 241.022 2751.55 244.33 2747.68 248.086C2736.21 259.228 2726.3 268.336 2717.34 275.987C2712.34 280.256 2711.86 280.824 2712.65 281.558C2713.17 282.053 2716.25 283.312 2727.6 287.676C2732.86 289.697 2737.46 291.525 2737.82 291.738C2738.18 291.95 2738.48 292.266 2738.48 292.438C2738.48 292.924 2734.87 294.646 2723.59 299.548C2710.37 305.288 2703.04 308.3 2702.29 308.3C2701.44 308.3 2700.15 306.896 2688.23 292.97C2677.37 280.294 2675.96 278.556 2675.96 277.847C2675.96 276.833 2681.27 269.774 2684.77 266.141C2689.96 260.737 2694.52 258.176 2708.63 252.727C2715.94 249.907 2722.98 246.94 2724.55 246.022C2725.77 245.302 2725.82 244.723 2724.69 244.068C2724.29 243.831 2721.18 242.44 2717.78 240.978C2714.39 239.516 2711.37 238.161 2711.07 237.968C2710.75 237.757 2710.54 237.41 2710.54 237.097C2710.54 234.448 2733.19 209.143 2744.76 198.861C2750.89 193.41 2754.81 191.485 2758.49 192.115C2763.75 193.017 2769.89 199.089 2774.13 207.601C2775.83 211.012 2776.49 212.749 2777.29 215.935C2778.7 221.49 2779.15 227.747 2778.96 238.823C2778.77 249.699 2778.45 253.244 2776.63 264.7C2771.35 297.963 2761.89 333.567 2754.38 348.417C2751.35 354.402 2747.66 360.096 2746.72 360.23C2746.39 360.276 2745.99 359.99 2745.35 359.251H2745.35Z" fill="#FFBC5B"/>
<path d="M2286.7 801.481L2286.34 806.661H2289.5C2289.89 806.661 2290.17 806.74 2290.34 806.896C2290.52 807.04 2290.6 807.237 2290.6 807.485C2290.6 807.734 2290.52 807.936 2290.34 808.093C2290.17 808.237 2289.89 808.309 2289.5 808.309H2286.22L2285.58 817.491C2285.55 817.883 2285.46 818.158 2285.3 818.315C2285.16 818.472 2284.98 818.551 2284.75 818.551L2284.42 818.472C2284.09 818.276 2283.93 818.008 2283.93 817.668V817.373L2284.58 808.309H2280.85L2280.22 817.491C2280.2 817.883 2280.1 818.158 2279.95 818.315C2279.79 818.472 2279.61 818.551 2279.4 818.551L2279.04 818.472C2278.72 818.276 2278.55 818.008 2278.55 817.668L2278.57 817.373L2279.2 808.309H2275.77C2275.38 808.309 2275.09 808.237 2274.92 808.093C2274.75 807.936 2274.67 807.734 2274.67 807.485C2274.67 807.237 2274.75 807.04 2274.92 806.896C2275.09 806.74 2275.38 806.661 2275.77 806.661H2279.32L2279.67 801.481H2276.61C2276.21 801.481 2275.92 801.41 2275.75 801.266C2275.58 801.109 2275.49 800.906 2275.49 800.657C2275.49 800.409 2275.58 800.213 2275.75 800.069C2275.92 799.912 2276.21 799.833 2276.61 799.833H2279.79L2280.44 790.651C2280.46 790.272 2280.55 790.004 2280.71 789.847C2280.87 789.677 2281.05 789.592 2281.26 789.592L2281.61 789.67C2281.94 789.88 2282.1 790.141 2282.1 790.455L2282.09 790.769L2281.46 799.833H2285.17L2285.81 790.651C2285.84 790.272 2285.92 790.004 2286.07 789.847C2286.22 789.677 2286.41 789.592 2286.64 789.592L2286.97 789.67C2287.31 789.88 2287.48 790.141 2287.48 790.455L2287.46 790.769L2286.81 799.833H2290.33C2290.72 799.833 2291 799.912 2291.17 800.069C2291.34 800.213 2291.42 800.409 2291.42 800.657C2291.42 800.906 2291.34 801.109 2291.17 801.266C2291 801.41 2290.72 801.481 2290.33 801.481H2286.7ZM2285.05 801.481H2281.34L2280.97 806.661H2284.69L2285.05 801.481ZM2305.22 799.009V803.169C2307.36 801.233 2308.96 799.99 2310.02 799.441C2311.1 798.879 2312.08 798.597 2312.99 798.597C2313.97 798.597 2314.88 798.931 2315.71 799.598C2316.56 800.252 2316.99 800.749 2316.99 801.089C2316.99 801.338 2316.9 801.547 2316.73 801.717C2316.58 801.874 2316.37 801.952 2316.13 801.952C2315.99 801.952 2315.88 801.933 2315.79 801.893C2315.7 801.841 2315.53 801.691 2315.28 801.442C2314.82 800.984 2314.42 800.671 2314.08 800.5C2313.74 800.33 2313.41 800.245 2313.08 800.245C2312.36 800.245 2311.49 800.533 2310.47 801.109C2309.47 801.684 2307.71 803.09 2305.22 805.327V814.352H2312.52C2312.92 814.352 2313.21 814.43 2313.38 814.587C2313.55 814.731 2313.63 814.927 2313.63 815.176C2313.63 815.411 2313.55 815.608 2313.38 815.765C2313.21 815.922 2312.92 816 2312.52 816H2299.59C2299.19 816 2298.91 815.928 2298.74 815.784C2298.57 815.627 2298.49 815.431 2298.49 815.196C2298.49 814.973 2298.57 814.79 2298.72 814.646C2298.89 814.489 2299.18 814.411 2299.59 814.411H2303.57V800.677H2300.53C2300.14 800.677 2299.85 800.599 2299.68 800.442C2299.51 800.285 2299.43 800.082 2299.43 799.833C2299.43 799.598 2299.51 799.402 2299.66 799.245C2299.83 799.088 2300.12 799.009 2300.53 799.009H2305.22ZM2336.06 816V813.626C2333.67 815.64 2331.11 816.647 2328.39 816.647C2326.41 816.647 2324.87 816.15 2323.76 815.156C2322.65 814.149 2322.09 812.92 2322.09 811.468C2322.09 809.872 2322.82 808.479 2324.29 807.289C2325.75 806.099 2327.89 805.503 2330.7 805.503C2331.46 805.503 2332.29 805.556 2333.17 805.66C2334.06 805.752 2335.03 805.902 2336.06 806.112V803.443C2336.06 802.541 2335.64 801.756 2334.8 801.089C2333.97 800.422 2332.71 800.088 2331.04 800.088C2329.75 800.088 2327.96 800.461 2325.64 801.207C2325.22 801.338 2324.95 801.403 2324.84 801.403C2324.63 801.403 2324.44 801.325 2324.29 801.168C2324.14 801.011 2324.07 800.814 2324.07 800.579C2324.07 800.357 2324.14 800.18 2324.27 800.049C2324.45 799.853 2325.19 799.585 2326.48 799.245C2328.52 798.695 2330.07 798.421 2331.11 798.421C2333.19 798.421 2334.82 798.937 2335.98 799.971C2337.14 800.991 2337.73 802.149 2337.73 803.443V814.352H2339.92C2340.33 814.352 2340.62 814.43 2340.79 814.587C2340.96 814.731 2341.04 814.927 2341.04 815.176C2341.04 815.411 2340.96 815.608 2340.79 815.765C2340.62 815.922 2340.33 816 2339.92 816H2336.06ZM2336.06 807.799C2335.29 807.577 2334.47 807.413 2333.61 807.309C2332.74 807.204 2331.83 807.152 2330.88 807.152C2328.49 807.152 2326.62 807.668 2325.27 808.701C2324.25 809.473 2323.74 810.395 2323.74 811.468C2323.74 812.462 2324.12 813.299 2324.9 813.979C2325.68 814.659 2326.82 814.999 2328.31 814.999C2329.73 814.999 2331.06 814.718 2332.27 814.156C2333.5 813.58 2334.76 812.671 2336.06 811.429V807.799ZM2362.33 800.677V800.128C2362.33 799.722 2362.41 799.434 2362.56 799.264C2362.72 799.094 2362.92 799.009 2363.15 799.009C2363.4 799.009 2363.6 799.094 2363.76 799.264C2363.92 799.434 2364 799.722 2364 800.128V803.855C2363.98 804.261 2363.9 804.549 2363.74 804.719C2363.6 804.889 2363.4 804.974 2363.15 804.974C2362.93 804.974 2362.74 804.902 2362.58 804.758C2362.44 804.601 2362.36 804.346 2362.33 803.993C2362.25 803.064 2361.64 802.181 2360.49 801.344C2359.35 800.507 2357.81 800.088 2355.87 800.088C2353.43 800.088 2351.57 800.854 2350.3 802.384C2349.03 803.914 2348.4 805.667 2348.4 807.642C2348.4 809.774 2349.1 811.533 2350.5 812.92C2351.9 814.306 2353.71 814.999 2355.93 814.999C2357.22 814.999 2358.52 814.764 2359.84 814.293C2361.17 813.822 2362.38 813.064 2363.45 812.017C2363.72 811.756 2363.96 811.625 2364.17 811.625C2364.4 811.625 2364.58 811.703 2364.72 811.86C2364.88 812.004 2364.96 812.187 2364.96 812.41C2364.96 812.972 2364.3 813.685 2362.98 814.548C2360.84 815.948 2358.47 816.647 2355.85 816.647C2353.2 816.647 2351.02 815.804 2349.3 814.117C2347.6 812.416 2346.75 810.265 2346.75 807.662C2346.75 805.006 2347.62 802.803 2349.36 801.05C2351.11 799.297 2353.32 798.421 2355.97 798.421C2358.5 798.421 2360.62 799.173 2362.33 800.677ZM2386.46 800.677V800.128C2386.46 799.722 2386.54 799.434 2386.7 799.264C2386.85 799.094 2387.05 799.009 2387.29 799.009C2387.53 799.009 2387.74 799.094 2387.89 799.264C2388.05 799.434 2388.13 799.722 2388.13 800.128V803.855C2388.12 804.261 2388.03 804.549 2387.87 804.719C2387.73 804.889 2387.53 804.974 2387.29 804.974C2387.06 804.974 2386.87 804.902 2386.72 804.758C2386.57 804.601 2386.49 804.346 2386.46 803.993C2386.38 803.064 2385.77 802.181 2384.62 801.344C2383.48 800.507 2381.94 800.088 2380.01 800.088C2377.56 800.088 2375.7 800.854 2374.43 802.384C2373.17 803.914 2372.53 805.667 2372.53 807.642C2372.53 809.774 2373.23 811.533 2374.63 812.92C2376.03 814.306 2377.84 814.999 2380.07 814.999C2381.35 814.999 2382.65 814.764 2383.97 814.293C2385.3 813.822 2386.51 813.064 2387.58 812.017C2387.85 811.756 2388.1 811.625 2388.31 811.625C2388.53 811.625 2388.71 811.703 2388.86 811.86C2389.01 812.004 2389.09 812.187 2389.09 812.41C2389.09 812.972 2388.43 813.685 2387.11 814.548C2384.98 815.948 2382.6 816.647 2379.99 816.647C2377.33 816.647 2375.15 815.804 2373.43 814.117C2371.73 812.416 2370.88 810.265 2370.88 807.662C2370.88 805.006 2371.75 802.803 2373.49 801.05C2375.25 799.297 2377.45 798.421 2380.1 798.421C2382.63 798.421 2384.75 799.173 2386.46 800.677ZM2412.93 807.544C2412.93 810.055 2412.03 812.2 2410.22 813.979C2408.43 815.758 2406.26 816.647 2403.73 816.647C2401.16 816.647 2398.99 815.758 2397.19 813.979C2395.4 812.187 2394.51 810.042 2394.51 807.544C2394.51 805.033 2395.4 802.888 2397.19 801.109C2398.99 799.317 2401.16 798.421 2403.73 798.421C2406.26 798.421 2408.43 799.31 2410.22 801.089C2412.03 802.868 2412.93 805.02 2412.93 807.544ZM2411.26 807.544C2411.26 805.477 2410.52 803.718 2409.04 802.266C2407.58 800.814 2405.8 800.088 2403.71 800.088C2401.61 800.088 2399.83 800.821 2398.35 802.286C2396.89 803.738 2396.15 805.49 2396.15 807.544C2396.15 809.584 2396.89 811.337 2398.35 812.802C2399.83 814.267 2401.61 814.999 2403.71 814.999C2405.8 814.999 2407.58 814.273 2409.04 812.822C2410.52 811.357 2411.26 809.597 2411.26 807.544ZM2437.06 807.544C2437.06 810.055 2436.16 812.2 2434.35 813.979C2432.56 815.758 2430.4 816.647 2427.86 816.647C2425.3 816.647 2423.12 815.758 2421.33 813.979C2419.53 812.187 2418.64 810.042 2418.64 807.544C2418.64 805.033 2419.53 802.888 2421.33 801.109C2423.12 799.317 2425.3 798.421 2427.86 798.421C2430.4 798.421 2432.56 799.31 2434.35 801.089C2436.16 802.868 2437.06 805.02 2437.06 807.544ZM2435.39 807.544C2435.39 805.477 2434.65 803.718 2433.18 802.266C2431.71 800.814 2429.93 800.088 2427.84 800.088C2425.75 800.088 2423.96 800.821 2422.48 802.286C2421.02 803.738 2420.29 805.49 2420.29 807.544C2420.29 809.584 2421.02 811.337 2422.48 812.802C2423.96 814.267 2425.75 814.999 2427.84 814.999C2429.93 814.999 2431.71 814.273 2433.18 812.822C2434.65 811.357 2435.39 809.597 2435.39 807.544ZM2446.65 799.009V801.501C2447.81 800.337 2448.85 799.533 2449.77 799.088C2450.7 798.643 2451.75 798.421 2452.91 798.421C2454.17 798.421 2455.31 798.689 2456.35 799.225C2457.08 799.618 2457.74 800.272 2458.33 801.187C2458.93 802.09 2459.23 803.018 2459.23 803.973V814.352H2460.62C2461.02 814.352 2461.3 814.43 2461.47 814.587C2461.64 814.731 2461.72 814.927 2461.72 815.176C2461.72 815.411 2461.64 815.608 2461.47 815.765C2461.3 815.922 2461.02 816 2460.62 816H2456.21C2455.8 816 2455.52 815.922 2455.35 815.765C2455.18 815.608 2455.09 815.411 2455.09 815.176C2455.09 814.927 2455.18 814.731 2455.35 814.587C2455.52 814.43 2455.8 814.352 2456.21 814.352H2457.58V804.248C2457.58 803.084 2457.16 802.103 2456.31 801.305C2455.46 800.494 2454.32 800.088 2452.89 800.088C2451.81 800.088 2450.87 800.311 2450.07 800.756C2449.27 801.187 2448.13 802.273 2446.65 804.012V814.352H2448.52C2448.91 814.352 2449.19 814.43 2449.36 814.587C2449.53 814.731 2449.62 814.927 2449.62 815.176C2449.62 815.411 2449.53 815.608 2449.36 815.765C2449.19 815.922 2448.91 816 2448.52 816H2443.14C2442.75 816 2442.47 815.922 2442.3 815.765C2442.13 815.608 2442.04 815.411 2442.04 815.176C2442.04 814.927 2442.13 814.731 2442.3 814.587C2442.47 814.43 2442.75 814.352 2443.14 814.352H2445.01V800.677H2443.61C2443.22 800.677 2442.94 800.599 2442.77 800.442C2442.6 800.285 2442.51 800.082 2442.51 799.833C2442.51 799.598 2442.6 799.402 2442.77 799.245C2442.94 799.088 2443.22 799.009 2443.61 799.009H2446.65ZM2481.56 800.088C2481.56 799.709 2481.64 799.434 2481.79 799.264C2481.95 799.094 2482.15 799.009 2482.38 799.009C2482.63 799.009 2482.83 799.094 2482.99 799.264C2483.15 799.434 2483.23 799.722 2483.23 800.128V802.953C2483.23 803.345 2483.15 803.627 2482.99 803.797C2482.83 803.967 2482.63 804.052 2482.38 804.052C2482.16 804.052 2481.97 803.98 2481.81 803.836C2481.67 803.692 2481.58 803.457 2481.56 803.13C2481.48 802.345 2481.07 801.697 2480.34 801.187C2479.27 800.455 2477.85 800.088 2476.08 800.088C2474.24 800.088 2472.81 800.461 2471.79 801.207C2471.02 801.769 2470.63 802.397 2470.63 803.09C2470.63 803.875 2471.09 804.529 2472 805.052C2472.63 805.418 2473.82 805.7 2475.57 805.896C2477.86 806.144 2479.45 806.426 2480.34 806.74C2481.61 807.197 2482.55 807.832 2483.17 808.643C2483.79 809.454 2484.11 810.33 2484.11 811.272C2484.11 812.671 2483.43 813.92 2482.09 815.019C2480.74 816.105 2478.77 816.647 2476.16 816.647C2473.56 816.647 2471.43 815.987 2469.77 814.666C2469.77 815.111 2469.74 815.398 2469.69 815.529C2469.64 815.66 2469.54 815.771 2469.39 815.863C2469.26 815.954 2469.11 816 2468.94 816C2468.71 816 2468.51 815.915 2468.35 815.745C2468.2 815.575 2468.12 815.294 2468.12 814.901V811.507C2468.12 811.115 2468.19 810.833 2468.33 810.663C2468.49 810.493 2468.69 810.408 2468.94 810.408C2469.18 810.408 2469.37 810.493 2469.53 810.663C2469.7 810.82 2469.79 811.036 2469.79 811.311C2469.79 811.913 2469.94 812.416 2470.24 812.822C2470.7 813.449 2471.42 813.973 2472.42 814.391C2473.42 814.797 2474.65 814.999 2476.1 814.999C2478.25 814.999 2479.84 814.6 2480.89 813.803C2481.94 813.005 2482.46 812.161 2482.46 811.272C2482.46 810.251 2481.93 809.434 2480.87 808.819C2479.8 808.204 2478.24 807.792 2476.18 807.583C2474.14 807.374 2472.68 807.099 2471.79 806.759C2470.9 806.419 2470.2 805.909 2469.71 805.229C2469.21 804.549 2468.96 803.816 2468.96 803.031C2468.96 801.619 2469.66 800.5 2471.04 799.676C2472.43 798.839 2474.08 798.421 2476.01 798.421C2478.28 798.421 2480.13 798.977 2481.56 800.088ZM2511.2 827.007H2489.29C2488.9 827.007 2488.61 826.928 2488.44 826.771C2488.27 826.627 2488.19 826.431 2488.19 826.183C2488.19 825.934 2488.27 825.731 2488.44 825.574C2488.61 825.431 2488.9 825.359 2489.29 825.359H2511.2C2511.61 825.359 2511.89 825.431 2512.05 825.574C2512.22 825.731 2512.3 825.934 2512.3 826.183C2512.3 826.431 2512.22 826.627 2512.05 826.771C2511.89 826.928 2511.61 827.007 2511.2 827.007ZM2529.82 800.088C2529.82 799.709 2529.9 799.434 2530.06 799.264C2530.21 799.094 2530.41 799.009 2530.65 799.009C2530.89 799.009 2531.1 799.094 2531.25 799.264C2531.41 799.434 2531.49 799.722 2531.49 800.128V802.953C2531.49 803.345 2531.41 803.627 2531.25 803.797C2531.1 803.967 2530.89 804.052 2530.65 804.052C2530.42 804.052 2530.23 803.98 2530.08 803.836C2529.93 803.692 2529.85 803.457 2529.82 803.13C2529.74 802.345 2529.34 801.697 2528.61 801.187C2527.53 800.455 2526.11 800.088 2524.35 800.088C2522.5 800.088 2521.07 800.461 2520.05 801.207C2519.28 801.769 2518.89 802.397 2518.89 803.09C2518.89 803.875 2519.35 804.529 2520.27 805.052C2520.9 805.418 2522.09 805.7 2523.84 805.896C2526.13 806.144 2527.72 806.426 2528.61 806.74C2529.87 807.197 2530.82 807.832 2531.43 808.643C2532.06 809.454 2532.37 810.33 2532.37 811.272C2532.37 812.671 2531.7 813.92 2530.35 815.019C2529 816.105 2527.03 816.647 2524.43 816.647C2521.82 816.647 2519.69 815.987 2518.03 814.666C2518.03 815.111 2518 815.398 2517.95 815.529C2517.9 815.66 2517.8 815.771 2517.66 815.863C2517.53 815.954 2517.38 816 2517.21 816C2516.97 816 2516.78 815.915 2516.62 815.745C2516.46 815.575 2516.38 815.294 2516.38 814.901V811.507C2516.38 811.115 2516.45 810.833 2516.6 810.663C2516.76 810.493 2516.96 810.408 2517.21 810.408C2517.44 810.408 2517.64 810.493 2517.8 810.663C2517.97 810.82 2518.05 811.036 2518.05 811.311C2518.05 811.913 2518.2 812.416 2518.5 812.822C2518.96 813.449 2519.69 813.973 2520.68 814.391C2521.69 814.797 2522.92 814.999 2524.37 814.999C2526.51 814.999 2528.11 814.6 2529.16 813.803C2530.2 813.005 2530.72 812.161 2530.72 811.272C2530.72 810.251 2530.2 809.434 2529.14 808.819C2528.06 808.204 2526.5 807.792 2524.45 807.583C2522.41 807.374 2520.94 807.099 2520.05 806.759C2519.16 806.419 2518.47 805.909 2517.97 805.229C2517.47 804.549 2517.23 803.816 2517.23 803.031C2517.23 801.619 2517.92 800.5 2519.31 799.676C2520.69 798.839 2522.35 798.421 2524.27 798.421C2526.55 798.421 2528.4 798.977 2529.82 800.088ZM2542.3 799.009V802.011C2543.28 800.821 2544.33 799.925 2545.46 799.323C2546.58 798.722 2547.91 798.421 2549.44 798.421C2551.06 798.421 2552.56 798.8 2553.93 799.559C2555.31 800.317 2556.37 801.377 2557.11 802.737C2557.87 804.084 2558.25 805.503 2558.25 806.995C2558.25 809.362 2557.4 811.389 2555.7 813.077C2554.01 814.751 2551.93 815.588 2549.46 815.588C2546.52 815.588 2544.13 814.391 2542.3 811.998V821.925H2546.3C2546.7 821.925 2546.98 821.997 2547.15 822.141C2547.32 822.298 2547.4 822.501 2547.4 822.749C2547.4 822.985 2547.32 823.181 2547.15 823.338C2546.98 823.495 2546.7 823.573 2546.3 823.573H2538.44C2538.04 823.573 2537.76 823.495 2537.59 823.338C2537.42 823.194 2537.34 822.998 2537.34 822.749C2537.34 822.501 2537.42 822.298 2537.59 822.141C2537.76 821.997 2538.04 821.925 2538.44 821.925H2540.65V800.677H2538.44C2538.04 800.677 2537.76 800.599 2537.59 800.442C2537.42 800.285 2537.34 800.082 2537.34 799.833C2537.34 799.598 2537.42 799.402 2537.59 799.245C2537.76 799.088 2538.04 799.009 2538.44 799.009H2542.3ZM2556.58 806.995C2556.58 805.098 2555.89 803.476 2554.5 802.129C2553.13 800.769 2551.45 800.088 2549.46 800.088C2547.46 800.088 2545.77 800.769 2544.38 802.129C2542.99 803.489 2542.3 805.111 2542.3 806.995C2542.3 808.891 2542.99 810.52 2544.38 811.88C2545.77 813.24 2547.46 813.92 2549.46 813.92C2551.44 813.92 2553.12 813.247 2554.5 811.899C2555.89 810.539 2556.58 808.904 2556.58 806.995ZM2566.43 791.377V802.305C2568.42 799.716 2570.82 798.421 2573.63 798.421C2576.04 798.421 2578.1 799.297 2579.81 801.05C2581.53 802.789 2582.38 804.928 2582.38 807.465C2582.38 810.029 2581.51 812.2 2579.77 813.979C2578.05 815.758 2576 816.647 2573.63 816.647C2570.76 816.647 2568.36 815.353 2566.43 812.763V816H2562.57C2562.18 816 2561.89 815.922 2561.72 815.765C2561.55 815.608 2561.47 815.411 2561.47 815.176C2561.47 814.927 2561.55 814.731 2561.72 814.587C2561.89 814.43 2562.18 814.352 2562.57 814.352H2564.78V793.045H2562.57C2562.18 793.045 2561.89 792.967 2561.72 792.81C2561.55 792.653 2561.47 792.45 2561.47 792.201C2561.47 791.966 2561.55 791.77 2561.72 791.613C2561.89 791.456 2562.18 791.377 2562.57 791.377H2566.43ZM2580.74 807.544C2580.74 805.464 2580.02 803.705 2578.6 802.266C2577.17 800.814 2575.5 800.088 2573.59 800.088C2571.68 800.088 2570.02 800.814 2568.59 802.266C2567.16 803.705 2566.45 805.464 2566.45 807.544C2566.45 809.624 2567.16 811.389 2568.59 812.841C2570.02 814.28 2571.68 814.999 2573.59 814.999C2575.5 814.999 2577.17 814.28 2578.6 812.841C2580.02 811.389 2580.74 809.624 2580.74 807.544ZM2607.73 827.007H2585.82C2585.42 827.007 2585.14 826.928 2584.97 826.771C2584.8 826.627 2584.72 826.431 2584.72 826.183C2584.72 825.934 2584.8 825.731 2584.97 825.574C2585.14 825.431 2585.42 825.359 2585.82 825.359H2607.73C2608.14 825.359 2608.42 825.431 2608.58 825.574C2608.75 825.731 2608.83 825.934 2608.83 826.183C2608.83 826.431 2608.75 826.627 2608.58 826.771C2608.42 826.928 2608.14 827.007 2607.73 827.007ZM2613.81 814.352H2626.47V813.705C2626.47 813.312 2626.55 813.031 2626.7 812.861C2626.86 812.691 2627.06 812.606 2627.31 812.606C2627.55 812.606 2627.74 812.691 2627.9 812.861C2628.06 813.031 2628.14 813.312 2628.14 813.705V816H2612.21V813.567C2615.55 810.559 2618.81 807.498 2621.98 804.385C2623.45 802.933 2624.47 801.867 2625.02 801.187C2625.57 800.507 2625.94 799.912 2626.14 799.402C2626.34 798.879 2626.45 798.355 2626.45 797.832C2626.45 796.42 2625.88 795.17 2624.74 794.085C2623.6 792.999 2622.23 792.456 2620.62 792.456C2619.18 792.456 2617.91 792.868 2616.8 793.692C2615.68 794.516 2614.96 795.537 2614.64 796.753C2614.56 797.067 2614.46 797.27 2614.34 797.361C2614.19 797.492 2614 797.558 2613.79 797.558C2613.57 797.558 2613.38 797.486 2613.23 797.342C2613.08 797.185 2613.01 797.002 2613.01 796.792C2613.01 796.165 2613.35 795.314 2614.03 794.242C2614.72 793.169 2615.67 792.326 2616.87 791.711C2618.09 791.096 2619.33 790.789 2620.6 790.789C2622.66 790.789 2624.42 791.502 2625.9 792.927C2627.38 794.353 2628.12 795.968 2628.12 797.773C2628.12 798.532 2627.99 799.232 2627.74 799.873C2627.5 800.5 2627.07 801.194 2626.47 801.952C2625.88 802.698 2624.81 803.829 2623.27 805.347C2619.4 809.166 2616.25 812.128 2613.81 814.234V814.352ZM2652.6 801.658V805.739C2652.6 809.284 2651.76 812.089 2650.07 814.156C2648.75 815.778 2647.08 816.589 2645.07 816.589C2644.1 816.589 2643.18 816.392 2642.32 816C2641.47 815.621 2640.75 815.084 2640.14 814.391C2639.76 813.96 2639.35 813.266 2638.89 812.312C2638.44 811.357 2638.12 810.48 2637.93 809.682C2637.63 808.558 2637.48 807.243 2637.48 805.739V801.658C2637.48 798.1 2638.32 795.288 2640.01 793.222C2641.33 791.6 2642.99 790.789 2645.01 790.789C2645.99 790.789 2646.91 790.985 2647.76 791.377C2648.61 791.757 2649.33 792.293 2649.93 792.986C2650.33 793.431 2650.74 794.131 2651.19 795.085C2651.63 796.04 2651.96 796.91 2652.17 797.695C2652.46 798.82 2652.6 800.141 2652.6 801.658ZM2650.95 801.874C2650.95 800.317 2650.73 798.872 2650.29 797.538C2649.86 796.191 2649.36 795.118 2648.82 794.32C2648.49 793.863 2648.06 793.47 2647.54 793.143C2646.79 792.685 2645.96 792.456 2645.03 792.456C2643.18 792.456 2641.74 793.398 2640.69 795.282C2639.65 797.165 2639.12 799.363 2639.12 801.874V805.503C2639.12 807.06 2639.34 808.512 2639.77 809.859C2640.22 811.206 2640.72 812.279 2641.28 813.077C2641.6 813.521 2642.01 813.907 2642.54 814.234C2643.28 814.705 2644.13 814.941 2645.07 814.941C2646.9 814.941 2648.34 813.999 2649.38 812.115C2650.43 810.219 2650.95 808.015 2650.95 805.503V801.874ZM2662.08 814.352H2674.73V813.705C2674.73 813.312 2674.81 813.031 2674.97 812.861C2675.13 812.691 2675.33 812.606 2675.58 812.606C2675.81 812.606 2676.01 812.691 2676.17 812.861C2676.32 813.031 2676.4 813.312 2676.4 813.705V816H2660.47V813.567C2663.82 810.559 2667.07 807.498 2670.24 804.385C2671.72 802.933 2672.73 801.867 2673.28 801.187C2673.83 800.507 2674.2 799.912 2674.4 799.402C2674.61 798.879 2674.71 798.355 2674.71 797.832C2674.71 796.42 2674.14 795.17 2673.01 794.085C2671.87 792.999 2670.5 792.456 2668.89 792.456C2667.45 792.456 2666.17 792.868 2665.06 793.692C2663.95 794.516 2663.23 795.537 2662.9 796.753C2662.82 797.067 2662.73 797.27 2662.61 797.361C2662.45 797.492 2662.27 797.558 2662.06 797.558C2661.84 797.558 2661.65 797.486 2661.49 797.342C2661.35 797.185 2661.27 797.002 2661.27 796.792C2661.27 796.165 2661.61 795.314 2662.29 794.242C2662.99 793.169 2663.94 792.326 2665.14 791.711C2666.36 791.096 2667.6 790.789 2668.87 790.789C2670.92 790.789 2672.69 791.502 2674.16 792.927C2675.64 794.353 2676.38 795.968 2676.38 797.773C2676.38 798.532 2676.26 799.232 2676.01 799.873C2675.76 800.5 2675.33 801.194 2674.73 801.952C2674.14 802.698 2673.08 803.829 2671.53 805.347C2667.66 809.166 2664.51 812.128 2662.08 814.234V814.352ZM2700.87 801.658V805.739C2700.87 809.284 2700.02 812.089 2698.34 814.156C2697.01 815.778 2695.35 816.589 2693.33 816.589C2692.36 816.589 2691.45 816.392 2690.59 816C2689.74 815.621 2689.01 815.084 2688.41 814.391C2688.03 813.96 2687.61 813.266 2687.15 812.312C2686.71 811.357 2686.39 810.48 2686.19 809.682C2685.89 808.558 2685.74 807.243 2685.74 805.739V801.658C2685.74 798.1 2686.58 795.288 2688.27 793.222C2689.59 791.6 2691.26 790.789 2693.27 790.789C2694.25 790.789 2695.17 790.985 2696.02 791.377C2696.87 791.757 2697.6 792.293 2698.2 792.986C2698.59 793.431 2699.01 794.131 2699.45 795.085C2699.9 796.04 2700.23 796.91 2700.43 797.695C2700.72 798.82 2700.87 800.141 2700.87 801.658ZM2699.22 801.874C2699.22 800.317 2699 798.872 2698.55 797.538C2698.12 796.191 2697.63 795.118 2697.08 794.32C2696.75 793.863 2696.33 793.47 2695.8 793.143C2695.06 792.685 2694.22 792.456 2693.29 792.456C2691.45 792.456 2690 793.398 2688.96 795.282C2687.91 797.165 2687.39 799.363 2687.39 801.874V805.503C2687.39 807.06 2687.6 808.512 2688.04 809.859C2688.48 811.206 2688.98 812.279 2689.55 813.077C2689.86 813.521 2690.28 813.907 2690.8 814.234C2691.55 814.705 2692.39 814.941 2693.33 814.941C2695.16 814.941 2696.6 813.999 2697.65 812.115C2698.7 810.219 2699.22 808.015 2699.22 805.503V801.874Z" fill="#FFBC5B"/>
<rect width="5000" height="1000" fill="black" fill-opacity="0.5"/>
</g>
<defs>
<clipPath id="clip0">
<rect width="5000" height="1000" fill="white"/>
</clipPath>
</defs>
</svg>
